<?xml version="1.0" encoding="UTF-8" standalone="no"?>
<!DOCTYPE svg PUBLIC "-//W3C//DTD SVG 1.1//EN"
 "http://www.w3.org/Graphics/SVG/1.1/DTD/svg11.dtd">
<!-- Generated by graphviz version 16.0.0 (20260814.1018)
 -->
<!-- Title: WorkflowChart Pages: 1 -->
<svg width="970pt" height="209pt"
 viewBox="0.00 0.00 970.00 209.00" xmlns="http://www.w3.org/2000/svg" xmlns:xlink="http://www.w3.org/1999/xlink">
<g id="graph0" class="graph" transform="scale(1 1) rotate(0) translate(4 204.65)">
<title>WorkflowChart</title>
<polygon fill="white" stroke="none" points="-4,4 -4,-204.65 965.55,-204.65 965.55,4 -4,4"/>
<text xml:space="preserve" text-anchor="middle" x="480.77" y="-5.75" font-family="Helvetica,sans-Serif" font-size="10.00">WorkflowChart</text>
<g id="clust2" class="cluster">
<title>cluster___atomic_0</title>
</g>
<!-- __initial_0 -->
<g id="node1" class="node">
<title>__initial_0</title>
<ellipse fill="black" stroke="black" stroke-width="0" cx="5.4" cy="-132.25" rx="5.4" ry="5.4"/>
</g>
<!-- grilling -->
<g id="node2" class="node">
<title>grilling</title>
<path fill="white" stroke="black" stroke-width="2" d="M75.8,-150.25C75.8,-150.25 45.8,-150.25 45.8,-150.25 39.8,-150.25 33.8,-144.25 33.8,-138.25 33.8,-138.25 33.8,-126.25 33.8,-126.25 33.8,-120.25 39.8,-114.25 45.8,-114.25 45.8,-114.25 75.8,-114.25 75.8,-114.25 81.8,-114.25 87.8,-120.25 87.8,-126.25 87.8,-126.25 87.8,-138.25 87.8,-138.25 87.8,-144.25 81.8,-150.25 75.8,-150.25"/>
<text xml:space="preserve" text-anchor="middle" x="60.8" y="-128.38" font-family="Helvetica,sans-Serif" font-size="10.00">Grilling</text>
</g>
<!-- __initial_0&#45;&gt;grilling -->
<g id="edge1" class="edge">
<title>__initial_0&#45;&gt;grilling</title>
<path fill="none" stroke="black" d="M10.59,-132.25C13.31,-132.25 17.14,-132.25 21.49,-132.25"/>
<polygon fill="black" stroke="black" points="21.47,-135.75 31.47,-132.25 21.47,-128.75 21.47,-135.75"/>
</g>
<!-- grilling&#45;&gt;grilling -->
<g id="edge2" class="edge">
<title>grilling&#45;&gt;grilling</title>
<path fill="none" stroke="black" d="M53.98,-151.18C52.59,-162.09 54.86,-172.25 60.8,-172.25 64.51,-172.25 66.79,-168.28 67.64,-162.64"/>
<polygon fill="black" stroke="black" points="71.14,-162.69 67.62,-152.69 64.14,-162.7 71.14,-162.69"/>
<text xml:space="preserve" text-anchor="start" x="53.3" y="-180.5" font-family="Helvetica,sans-Serif" font-size="9.00">grill</text>
</g>
<!-- speccing -->
<g id="node3" class="node">
<title>speccing</title>
<path fill="white" stroke="black" stroke-width="2" d="M193.8,-142.25C193.8,-142.25 161.3,-142.25 161.3,-142.25 155.3,-142.25 149.3,-136.25 149.3,-130.25 149.3,-130.25 149.3,-118.25 149.3,-118.25 149.3,-112.25 155.3,-106.25 161.3,-106.25 161.3,-106.25 193.8,-106.25 193.8,-106.25 199.8,-106.25 205.8,-112.25 205.8,-118.25 205.8,-118.25 205.8,-130.25 205.8,-130.25 205.8,-136.25 199.8,-142.25 193.8,-142.25"/>
<text xml:space="preserve" text-anchor="middle" x="177.55" y="-120.38" font-family="Helvetica,sans-Serif" font-size="10.00">Speccing</text>
</g>
<!-- grilling&#45;&gt;speccing -->
<g id="edge3" class="edge">
<title>grilling&#45;&gt;speccing</title>
<path fill="none" stroke="black" d="M88.7,-130.37C103.2,-129.36 121.36,-128.1 137.4,-126.98"/>
<polygon fill="black" stroke="black" points="137.37,-130.49 147.11,-126.3 136.89,-123.51 137.37,-130.49"/>
<text xml:space="preserve" text-anchor="start" x="102.8" y="-137.91" font-family="Helvetica,sans-Serif" font-size="9.00">to&#45;ticket</text>
</g>
<!-- specced -->
<g id="node4" class="node">
<title>specced</title>
<path fill="white" stroke="black" stroke-width="2" d="M312.55,-148.25C312.55,-148.25 282.3,-148.25 282.3,-148.25 276.3,-148.25 270.3,-142.25 270.3,-136.25 270.3,-136.25 270.3,-124.25 270.3,-124.25 270.3,-118.25 276.3,-112.25 282.3,-112.25 282.3,-112.25 312.55,-112.25 312.55,-112.25 318.55,-112.25 324.55,-118.25 324.55,-124.25 324.55,-124.25 324.55,-136.25 324.55,-136.25 324.55,-142.25 318.55,-148.25 312.55,-148.25"/>
<text xml:space="preserve" text-anchor="middle" x="297.42" y="-126.38" font-family="Helvetica,sans-Serif" font-size="10.00">Specced</text>
</g>
<!-- speccing&#45;&gt;specced -->
<g id="edge4" class="edge">
<title>speccing&#45;&gt;specced</title>
<path fill="none" stroke="black" d="M206.62,-123.3C219.92,-123.07 236.23,-123.11 257.87,-124.65"/>
<polygon fill="black" stroke="black" points="257.55,-128.14 267.8,-125.45 258.11,-121.16 257.55,-128.14"/>
<text xml:space="preserve" text-anchor="start" x="220.8" y="-132.75" font-family="Helvetica,sans-Serif" font-size="9.00">specced</text>
</g>
<!-- implementing -->
<g id="node5" class="node">
<title>implementing</title>
<path fill="white" stroke="black" stroke-width="2" d="M459.8,-154.25C459.8,-154.25 409.3,-154.25 409.3,-154.25 403.3,-154.25 397.3,-148.25 397.3,-142.25 397.3,-142.25 397.3,-130.25 397.3,-130.25 397.3,-124.25 403.3,-118.25 409.3,-118.25 409.3,-118.25 459.8,-118.25 459.8,-118.25 465.8,-118.25 471.8,-124.25 471.8,-130.25 471.8,-130.25 471.8,-142.25 471.8,-142.25 471.8,-148.25 465.8,-154.25 459.8,-154.25"/>
<text xml:space="preserve" text-anchor="middle" x="434.55" y="-132.38" font-family="Helvetica,sans-Serif" font-size="10.00">Implementing</text>
</g>
<!-- specced&#45;&gt;implementing -->
<g id="edge5" class="edge">
<title>specced&#45;&gt;implementing</title>
<path fill="none" stroke="black" d="M325.44,-131.45C342.44,-132.2 364.87,-133.2 384.89,-134.09"/>
<polygon fill="black" stroke="black" points="384.68,-137.58 394.83,-134.53 384.99,-130.59 384.68,-137.58"/>
<text xml:space="preserve" text-anchor="start" x="339.55" y="-142.39" font-family="Helvetica,sans-Serif" font-size="9.00">implement</text>
</g>
<!-- implementing&#45;&gt;grilling -->
<g id="edge6" class="edge">
<title>implementing&#45;&gt;grilling</title>
<path fill="none" stroke="black" d="M399.11,-155.18C394.9,-156.84 390.57,-158.27 386.3,-159.25 265.17,-187.17 223.79,-189.78 99.27,-153.4"/>
<polygon fill="black" stroke="black" points="100.6,-150.14 90.01,-150.67 98.61,-156.86 100.6,-150.14"/>
<text xml:space="preserve" text-anchor="start" x="230.55" y="-189.15" font-family="Helvetica,sans-Serif" font-size="9.00">grill</text>
</g>
<!-- implementing&#45;&gt;speccing -->
<g id="edge7" class="edge">
<title>implementing&#45;&gt;speccing</title>
<path fill="none" stroke="black" d="M405.36,-117.47C384.15,-104.52 353.81,-88.44 324.55,-81.5 301.09,-75.94 293.84,-76.28 270.3,-81.5 251.86,-85.58 232.74,-93.77 216.75,-101.9"/>
<polygon fill="black" stroke="black" points="215.28,-98.72 208.07,-106.48 218.55,-104.91 215.28,-98.72"/>
<text xml:space="preserve" text-anchor="start" x="281.67" y="-89.75" font-family="Helvetica,sans-Serif" font-size="9.00">to&#45;ticket</text>
</g>
<!-- qa -->
<g id="node6" class="node">
<title>qa</title>
<path fill="white" stroke="black" stroke-width="2" d="M593.55,-117.25C593.55,-117.25 563.55,-117.25 563.55,-117.25 557.55,-117.25 551.55,-111.25 551.55,-105.25 551.55,-105.25 551.55,-93.25 551.55,-93.25 551.55,-87.25 557.55,-81.25 563.55,-81.25 563.55,-81.25 593.55,-81.25 593.55,-81.25 599.55,-81.25 605.55,-87.25 605.55,-93.25 605.55,-93.25 605.55,-105.25 605.55,-105.25 605.55,-111.25 599.55,-117.25 593.55,-117.25"/>
<text xml:space="preserve" text-anchor="middle" x="578.55" y="-95.38" font-family="Helvetica,sans-Serif" font-size="10.00">QA</text>
</g>
<!-- implementing&#45;&gt;qa -->
<g id="edge8" class="edge">
<title>implementing&#45;&gt;qa</title>
<path fill="none" stroke="black" d="M449.5,-117.43C457.92,-107.69 469.58,-96.77 482.8,-91.5 500.66,-84.38 521.88,-85.35 539.71,-88.51"/>
<polygon fill="black" stroke="black" points="538.88,-91.92 549.39,-90.54 540.32,-85.06 538.88,-91.92"/>
<text xml:space="preserve" text-anchor="start" x="502.92" y="-99.75" font-family="Helvetica,sans-Serif" font-size="9.00">qa</text>
</g>
<!-- qa&#45;&gt;implementing -->
<g id="edge9" class="edge">
<title>qa&#45;&gt;implementing</title>
<path fill="none" stroke="black" d="M550.61,-107.43C544.99,-109.07 539.09,-110.75 533.55,-112.25 517.2,-116.66 499.22,-121.17 483.17,-125.06"/>
<polygon fill="black" stroke="black" points="482.79,-121.56 473.89,-127.3 484.43,-128.36 482.79,-121.56"/>
<text xml:space="preserve" text-anchor="start" x="486.8" y="-133.39" font-family="Helvetica,sans-Serif" font-size="9.00">implement</text>
</g>
<!-- review -->
<g id="node7" class="node">
<title>review</title>
<path fill="white" stroke="black" stroke-width="2" d="M707.8,-191.25C707.8,-191.25 677.8,-191.25 677.8,-191.25 671.8,-191.25 665.8,-185.25 665.8,-179.25 665.8,-179.25 665.8,-167.25 665.8,-167.25 665.8,-161.25 671.8,-155.25 677.8,-155.25 677.8,-155.25 707.8,-155.25 707.8,-155.25 713.8,-155.25 719.8,-161.25 719.8,-167.25 719.8,-167.25 719.8,-179.25 719.8,-179.25 719.8,-185.25 713.8,-191.25 707.8,-191.25"/>
<text xml:space="preserve" text-anchor="middle" x="692.8" y="-169.38" font-family="Helvetica,sans-Serif" font-size="10.00">Review</text>
</g>
<!-- qa&#45;&gt;review -->
<g id="edge10" class="edge">
<title>qa&#45;&gt;review</title>
<path fill="none" stroke="black" d="M606.47,-117.76C612.09,-121.59 618,-125.57 623.55,-129.25 633.88,-136.1 645.16,-143.43 655.53,-150.11"/>
<polygon fill="black" stroke="black" points="653.54,-152.99 663.85,-155.46 657.32,-147.11 653.54,-152.99"/>
<text xml:space="preserve" text-anchor="start" x="627.55" y="-156.99" font-family="Helvetica,sans-Serif" font-size="9.00">ready</text>
</g>
<!-- merging -->
<g id="node8" class="node">
<title>merging</title>
<path fill="white" stroke="black" stroke-width="2" d="M818.05,-127.25C818.05,-127.25 788.05,-127.25 788.05,-127.25 782.05,-127.25 776.05,-121.25 776.05,-115.25 776.05,-115.25 776.05,-103.25 776.05,-103.25 776.05,-97.25 782.05,-91.25 788.05,-91.25 788.05,-91.25 818.05,-91.25 818.05,-91.25 824.05,-91.25 830.05,-97.25 830.05,-103.25 830.05,-103.25 830.05,-115.25 830.05,-115.25 830.05,-121.25 824.05,-127.25 818.05,-127.25"/>
<text xml:space="preserve" text-anchor="middle" x="803.05" y="-105.38" font-family="Helvetica,sans-Serif" font-size="10.00">Merging</text>
</g>
<!-- qa&#45;&gt;merging -->
<g id="edge11" class="edge">
<title>qa&#45;&gt;merging</title>
<path fill="none" stroke="black" d="M606.33,-82.17C611.86,-79.18 617.77,-76.35 623.55,-74.25 663.88,-59.57 678.11,-56.31 719.8,-66.5 735.65,-70.37 751.85,-77.88 765.63,-85.54"/>
<polygon fill="black" stroke="black" points="763.48,-88.35 773.89,-90.34 767,-82.29 763.48,-88.35"/>
<text xml:space="preserve" text-anchor="start" x="679.67" y="-74.75" font-family="Helvetica,sans-Serif" font-size="9.00">merge</text>
</g>
<!-- review&#45;&gt;implementing -->
<g id="edge15" class="edge">
<title>review&#45;&gt;implementing</title>
<path fill="none" stroke="black" d="M664.85,-174.25C652.28,-174.46 637.13,-174.35 623.55,-173.25 563.7,-168.39 546.38,-164.79 483.51,-150.24"/>
<polygon fill="black" stroke="black" points="484.58,-146.89 474.05,-148.04 483,-153.71 484.58,-146.89"/>
<text xml:space="preserve" text-anchor="start" x="548.55" y="-180.49" font-family="Helvetica,sans-Serif" font-size="9.00">resolve&#45;review</text>
</g>
<!-- review&#45;&gt;qa -->
<g id="edge12" class="edge">
<title>review&#45;&gt;qa</title>
<path fill="none" stroke="black" d="M676.04,-154.36C672.34,-149.34 668.65,-143.76 665.8,-138.25 658.56,-124.23 667.24,-114.21 654.8,-104.5 644.52,-96.48 630.86,-93.9 618,-93.75"/>
<polygon fill="black" stroke="black" points="617.91,-90.25 608.05,-94.14 618.18,-97.24 617.91,-90.25"/>
<text xml:space="preserve" text-anchor="start" x="633.92" y="-112.75" font-family="Helvetica,sans-Serif" font-size="9.00">qa</text>
</g>
<!-- review&#45;&gt;merging -->
<g id="edge13" class="edge">
<title>review&#45;&gt;merging</title>
<path fill="none" stroke="black" d="M717.66,-154.42C721.94,-151.31 726.44,-148.22 730.8,-145.5 741.51,-138.83 753.61,-132.32 764.75,-126.7"/>
<polygon fill="black" stroke="black" points="766.28,-129.85 773.7,-122.29 763.18,-123.57 766.28,-129.85"/>
<text xml:space="preserve" text-anchor="start" x="734.8" y="-153.75" font-family="Helvetica,sans-Serif" font-size="9.00">merge</text>
</g>
<!-- merged -->
<g id="node9" class="node">
<title>merged</title>
<path fill="white" stroke="black" stroke-width="2" d="M937.55,-166.25C937.55,-166.25 907.55,-166.25 907.55,-166.25 901.55,-166.25 895.55,-160.25 895.55,-154.25 895.55,-154.25 895.55,-142.25 895.55,-142.25 895.55,-136.25 901.55,-130.25 907.55,-130.25 907.55,-130.25 937.55,-130.25 937.55,-130.25 943.55,-130.25 949.55,-136.25 949.55,-142.25 949.55,-142.25 949.55,-154.25 949.55,-154.25 949.55,-160.25 943.55,-166.25 937.55,-166.25"/>
<path fill="none" stroke="black" stroke-width="2" d="M941.55,-170.25C941.55,-170.25 903.55,-170.25 903.55,-170.25 897.55,-170.25 891.55,-164.25 891.55,-158.25 891.55,-158.25 891.55,-138.25 891.55,-138.25 891.55,-132.25 897.55,-126.25 903.55,-126.25 903.55,-126.25 941.55,-126.25 941.55,-126.25 947.55,-126.25 953.55,-132.25 953.55,-138.25 953.55,-138.25 953.55,-158.25 953.55,-158.25 953.55,-164.25 947.55,-170.25 941.55,-170.25"/>
<text xml:space="preserve" text-anchor="middle" x="922.55" y="-144.38" font-family="Helvetica,sans-Serif" font-size="10.00">Merged</text>
</g>
<!-- review&#45;&gt;merged -->
<g id="edge14" class="edge">
<title>review&#45;&gt;merged</title>
<path fill="none" stroke="black" d="M720.59,-172.81C754.96,-171.92 816.63,-169.18 879.47,-159.07"/>
<polygon fill="black" stroke="black" points="880.02,-162.52 889.3,-157.42 878.86,-155.62 880.02,-162.52"/>
<text xml:space="preserve" text-anchor="start" x="787.3" y="-178.62" font-family="Helvetica,sans-Serif" font-size="9.00">merged</text>
</g>
<!-- merging&#45;&gt;qa -->
<g id="edge16" class="edge">
<title>merging&#45;&gt;qa</title>
<path fill="none" stroke="black" d="M775.14,-102.48C740.19,-94.55 677.32,-83.22 623.55,-89.25 621.62,-89.47 619.66,-89.73 617.68,-90.04"/>
<polygon fill="black" stroke="black" points="617.05,-86.6 607.87,-91.87 618.34,-93.48 617.05,-86.6"/>
<text xml:space="preserve" text-anchor="start" x="687.55" y="-100.34" font-family="Helvetica,sans-Serif" font-size="9.00">qa</text>
</g>
<!-- merging&#45;&gt;merged -->
<g id="edge17" class="edge">
<title>merging&#45;&gt;merged</title>
<path fill="none" stroke="black" d="M831.01,-118.2C845.43,-122.98 863.51,-128.99 879.72,-134.36"/>
<polygon fill="black" stroke="black" points="878.54,-137.66 889.13,-137.49 880.74,-131.02 878.54,-137.66"/>
<text xml:space="preserve" text-anchor="start" x="845.05" y="-142.77" font-family="Helvetica,sans-Serif" font-size="9.00">merged</text>
</g>
</g>
</svg>
